<svg width="264" height="161" xmlns="http://www.w3.org/2000/svg" xmlns:xlink="http://www.w3.org/1999/xlink" xml:space="preserve" overflow="hidden"><g transform="translate(-231 -221)"><path d="M0.278212 87.6868 11.5235 87.6868 11.5235 160.528 0.278211 160.528Z" stroke="#231F20" stroke-width="0.556424" stroke-miterlimit="10" fill="#231F20" transform="matrix(1.46262 0 0 1 231 221.097)"/><path d="M180.22 0.278212 180.22 24.3157 168.975 24.3157 165.035 32.3282 161.101 40.3407 157.729 47.1959 157.162 48.3532 153.222 56.3657 149.288 64.3782 146.484 70.0816 145.349 72.3907 141.41 80.4032 141.193 80.4032 141.298 80.6258 145.16 88.4157 146.484 91.0921 149.127 96.4282 153.1 104.441 157.067 112.453 157.729 113.789 161.035 120.466 165.007 128.478 168.975 136.491 180.22 136.491 180.22 160.528 168.975 160.528 165.007 152.516 161.035 144.503 157.729 137.826 157.729 136.491 157.067 136.491 153.1 128.478 149.127 120.466 146.484 115.13 145.16 112.453 141.193 104.441 137.22 96.4282 135.372 92.6946 135.233 92.4164 135.233 92.9728 133.536 96.4282 125.657 112.453 123.988 115.853 121.723 120.466 117.784 128.478 113.844 136.491 112.743 138.739 109.91 144.503 105.971 152.516 102.031 160.528 90.2464 160.528 85.6169 152.516 80.9875 144.503 79.001 141.07 76.3525 136.491 71.723 128.478 67.7557 121.612 67.0936 120.466 62.4641 112.453 57.8291 104.441 56.5104 102.154 53.1997 96.4282 48.5702 88.4157 45.2595 82.6901 43.9408 80.4032 39.3058 72.3907 34.6763 64.3782 34.0142 63.232 30.0469 56.3657 25.4174 48.3532 22.7689 43.7738 20.7824 40.3407 16.153 32.3282 11.5235 24.3157 0.278212 24.3157 0.278212 0.278212 11.5235 0.278212 16.153 8.29071 20.7824 16.3032 22.7689 19.7363 25.4174 24.3157 30.0469 32.3282 34.0142 39.1945 34.0142 40.3407 34.6763 40.3407 39.3058 48.3532 43.9408 56.3657 45.2595 58.6526 48.5702 64.3782 53.1997 72.3907 56.5104 78.1163 57.8291 80.4032 62.4641 88.4157 67.0936 96.4282 67.7557 97.5745 71.723 104.441 76.3525 112.453 79.001 117.033 80.9875 120.466 85.6169 128.478 90.2464 136.491 101.497 136.491 105.498 128.478 109.499 120.466 112.743 113.972 113.499 112.453 117.5 104.441 121.506 96.4282 123.988 91.4538 125.507 88.4157 129.396 80.6314 129.508 80.4032 129.279 80.4032 126.892 75.5846 125.312 72.3907 123.988 69.7143 121.345 64.3782 117.372 56.3657 113.405 48.3532 112.743 47.0178 109.437 40.3407 105.465 32.3282 101.497 24.3157 90.2464 24.3157 90.2464 0.278212 101.497 0.278212 105.465 8.29071 109.437 16.3032 112.743 22.9803 112.743 24.3157 113.405 24.3157 117.372 32.3282 121.345 40.3407 123.988 45.6768 125.312 48.3532 129.279 56.3657 133.252 64.3782 135.233 68.3789 135.233 68.9353 135.372 68.6571 137.509 64.3782 141.51 56.3657 145.51 48.3532 146.484 46.4057 149.511 40.3407 153.512 32.3282 157.518 24.3157 157.729 24.3157 157.729 23.8873 161.519 16.3032 165.519 8.29071 168.975 1.3688 168.975 0.278212 180.22 0.278212Z" stroke="#231F20" stroke-width="0.556424" stroke-miterlimit="10" fill="#231F20" transform="matrix(1.46262 0 0 1 231 221.097)"/></g></svg>