<svg xmlns="http://www.w3.org/2000/svg" xmlns:xlink="http://www.w3.org/1999/xlink" width="1024" zoomAndPan="magnify" viewBox="0 0 768 767.999994" height="1024" preserveAspectRatio="xMidYMid meet" version="1.0"><defs><clipPath id="aaa5f53138"><path d="M 76.625 401.5625 L 690.875 401.5625 L 690.875 741 L 76.625 741 Z M 76.625 401.5625 " clip-rule="nonzero"/></clipPath><clipPath id="90a30a8661"><path d="M 23.882812 213.664062 L 61.449219 213.664062 L 61.449219 691.199219 L 23.882812 691.199219 Z M 23.882812 213.664062 " clip-rule="nonzero"/></clipPath><clipPath id="d8e58cc918"><path d="M 35.882812 213.664062 L 49.449219 213.664062 C 52.632812 213.664062 55.6875 214.929688 57.9375 217.179688 C 60.1875 219.429688 61.449219 222.484375 61.449219 225.664062 L 61.449219 679.199219 C 61.449219 682.382812 60.1875 685.433594 57.9375 687.683594 C 55.6875 689.9375 52.632812 691.199219 49.449219 691.199219 L 35.882812 691.199219 C 32.699219 691.199219 29.648438 689.9375 27.398438 687.683594 C 25.148438 685.433594 23.882812 682.382812 23.882812 679.199219 L 23.882812 225.664062 C 23.882812 222.484375 25.148438 219.429688 27.398438 217.179688 C 29.648438 214.929688 32.699219 213.664062 35.882812 213.664062 Z M 35.882812 213.664062 " clip-rule="nonzero"/></clipPath><clipPath id="4e999d216a"><path d="M 0.882812 0.664062 L 38.449219 0.664062 L 38.449219 478.199219 L 0.882812 478.199219 Z M 0.882812 0.664062 " clip-rule="nonzero"/></clipPath><clipPath id="ae0ae5af8c"><path d="M 12.882812 0.664062 L 26.449219 0.664062 C 29.632812 0.664062 32.6875 1.929688 34.9375 4.179688 C 37.1875 6.429688 38.449219 9.484375 38.449219 12.664062 L 38.449219 466.199219 C 38.449219 469.382812 37.1875 472.433594 34.9375 474.683594 C 32.6875 476.9375 29.632812 478.199219 26.449219 478.199219 L 12.882812 478.199219 C 9.699219 478.199219 6.648438 476.9375 4.398438 474.683594 C 2.148438 472.433594 0.882812 469.382812 0.882812 466.199219 L 0.882812 12.664062 C 0.882812 9.484375 2.148438 6.429688 4.398438 4.179688 C 6.648438 1.929688 9.699219 0.664062 12.882812 0.664062 Z M 12.882812 0.664062 " clip-rule="nonzero"/></clipPath><clipPath id="f61eb4e874"><rect x="0" width="39" y="0" height="479"/></clipPath><clipPath id="6c1268ee7d"><path d="M 706.199219 213.664062 L 743.769531 213.664062 L 743.769531 691.199219 L 706.199219 691.199219 Z M 706.199219 213.664062 " clip-rule="nonzero"/></clipPath><clipPath id="f93d0f7a8f"><path d="M 718.199219 213.664062 L 731.769531 213.664062 C 734.953125 213.664062 738.003906 214.929688 740.253906 217.179688 C 742.503906 219.429688 743.769531 222.484375 743.769531 225.664062 L 743.769531 679.199219 C 743.769531 682.382812 742.503906 685.433594 740.253906 687.683594 C 738.003906 689.9375 734.953125 691.199219 731.769531 691.199219 L 718.199219 691.199219 C 715.015625 691.199219 711.964844 689.9375 709.714844 687.683594 C 707.464844 685.433594 706.199219 682.382812 706.199219 679.199219 L 706.199219 225.664062 C 706.199219 222.484375 707.464844 219.429688 709.714844 217.179688 C 711.964844 214.929688 715.015625 213.664062 718.199219 213.664062 Z M 718.199219 213.664062 " clip-rule="nonzero"/></clipPath><clipPath id="c8a048fbb7"><path d="M 0.199219 0.664062 L 37.769531 0.664062 L 37.769531 478.199219 L 0.199219 478.199219 Z M 0.199219 0.664062 " clip-rule="nonzero"/></clipPath><clipPath id="36fb1abcec"><path d="M 12.199219 0.664062 L 25.769531 0.664062 C 28.953125 0.664062 32.003906 1.929688 34.253906 4.179688 C 36.503906 6.429688 37.769531 9.484375 37.769531 12.664062 L 37.769531 466.199219 C 37.769531 469.382812 36.503906 472.433594 34.253906 474.683594 C 32.003906 476.9375 28.953125 478.199219 25.769531 478.199219 L 12.199219 478.199219 C 9.015625 478.199219 5.964844 476.9375 3.714844 474.683594 C 1.464844 472.433594 0.199219 469.382812 0.199219 466.199219 L 0.199219 12.664062 C 0.199219 9.484375 1.464844 6.429688 3.714844 4.179688 C 5.964844 1.929688 9.015625 0.664062 12.199219 0.664062 Z M 12.199219 0.664062 " clip-rule="nonzero"/></clipPath><clipPath id="44f41a24bd"><rect x="0" width="38" y="0" height="479"/></clipPath><clipPath id="1802ce9db6"><path d="M 245.152344 106.886719 L 489.5625 106.886719 L 489.5625 320.433594 L 245.152344 320.433594 Z M 245.152344 106.886719 " clip-rule="nonzero"/></clipPath><clipPath id="b4a8392f96"><path d="M 367.535156 320.433594 L 245.511719 106.886719 L 489.5625 106.886719 Z M 367.535156 320.433594 " clip-rule="nonzero"/></clipPath><clipPath id="0d3aff5668"><path d="M 0.28125 0.886719 L 244.5625 0.886719 L 244.5625 214.433594 L 0.28125 214.433594 Z M 0.28125 0.886719 " clip-rule="nonzero"/></clipPath><clipPath id="c73a27173b"><path d="M 122.535156 214.433594 L 0.511719 0.886719 L 244.5625 0.886719 Z M 122.535156 214.433594 " clip-rule="nonzero"/></clipPath><clipPath id="acb3149b4b"><rect x="0" width="245" y="0" height="215"/></clipPath><clipPath id="4ab25391ba"><path d="M 355.996094 9.554688 L 379.070312 9.554688 L 379.070312 281.574219 L 355.996094 281.574219 Z M 355.996094 9.554688 " clip-rule="nonzero"/></clipPath><clipPath id="2e658bff89"><path d="M 367.535156 281.574219 C 364.472656 281.574219 361.539062 280.359375 359.375 278.195312 C 357.210938 276.03125 355.996094 273.097656 355.996094 270.039062 L 355.996094 21.117188 C 355.996094 18.054688 357.210938 15.121094 359.375 12.957031 C 361.539062 10.792969 364.472656 9.578125 367.535156 9.578125 C 370.59375 9.578125 373.527344 10.792969 375.691406 12.957031 C 377.855469 15.121094 379.070312 18.054688 379.070312 21.117188 L 379.070312 270.039062 C 379.070312 273.097656 377.855469 276.03125 375.691406 278.195312 C 373.527344 280.359375 370.59375 281.574219 367.535156 281.574219 Z M 367.535156 281.574219 " clip-rule="nonzero"/></clipPath><clipPath id="af53daef6b"><path d="M 0.996094 0.554688 L 24.070312 0.554688 L 24.070312 272.574219 L 0.996094 272.574219 Z M 0.996094 0.554688 " clip-rule="nonzero"/></clipPath><clipPath id="99590c0bcb"><path d="M 12.535156 272.574219 C 9.472656 272.574219 6.539062 271.359375 4.375 269.195312 C 2.210938 267.03125 0.996094 264.097656 0.996094 261.039062 L 0.996094 12.117188 C 0.996094 9.054688 2.210938 6.121094 4.375 3.957031 C 6.539062 1.792969 9.472656 0.578125 12.535156 0.578125 C 15.59375 0.578125 18.527344 1.792969 20.691406 3.957031 C 22.855469 6.121094 24.070312 9.054688 24.070312 12.117188 L 24.070312 261.039062 C 24.070312 264.097656 22.855469 267.03125 20.691406 269.195312 C 18.527344 271.359375 15.59375 272.574219 12.535156 272.574219 Z M 12.535156 272.574219 " clip-rule="nonzero"/></clipPath><clipPath id="eb4319852c"><rect x="0" width="25" y="0" height="273"/></clipPath><clipPath id="52d956a396"><path d="M 356.011719 9.582031 L 628.027344 9.582031 L 628.027344 34.730469 L 356.011719 34.730469 Z M 356.011719 9.582031 " clip-rule="nonzero"/></clipPath><clipPath id="ceca2bce65"><path d="M 356.011719 22.730469 L 356.011719 21.582031 C 356.011719 18.398438 357.273438 15.34375 359.523438 13.09375 C 361.773438 10.84375 364.828125 9.582031 368.011719 9.582031 L 616.003906 9.582031 C 619.1875 9.582031 622.242188 10.84375 624.492188 13.09375 C 626.742188 15.34375 628.003906 18.398438 628.003906 21.582031 L 628.003906 22.730469 C 628.003906 25.910156 626.742188 28.964844 624.492188 31.214844 C 622.242188 33.464844 619.1875 34.730469 616.003906 34.730469 L 368.011719 34.730469 C 364.828125 34.730469 361.773438 33.464844 359.523438 31.214844 C 357.273438 28.964844 356.011719 25.910156 356.011719 22.730469 Z M 356.011719 22.730469 " clip-rule="nonzero"/></clipPath><clipPath id="a1792c499f"><path d="M 0.0117188 0.582031 L 272.027344 0.582031 L 272.027344 25.730469 L 0.0117188 25.730469 Z M 0.0117188 0.582031 " clip-rule="nonzero"/></clipPath><clipPath id="79eb50c9ac"><path d="M 0.0117188 13.730469 L 0.0117188 12.582031 C 0.0117188 9.398438 1.273438 6.34375 3.523438 4.09375 C 5.773438 1.84375 8.828125 0.582031 12.011719 0.582031 L 260.003906 0.582031 C 263.1875 0.582031 266.242188 1.84375 268.492188 4.09375 C 270.742188 6.34375 272.003906 9.398438 272.003906 12.582031 L 272.003906 13.730469 C 272.003906 16.910156 270.742188 19.964844 268.492188 22.214844 C 266.242188 24.464844 263.1875 25.730469 260.003906 25.730469 L 12.011719 25.730469 C 8.828125 25.730469 5.773438 24.464844 3.523438 22.214844 C 1.273438 19.964844 0.0117188 16.910156 0.0117188 13.730469 Z M 0.0117188 13.730469 " clip-rule="nonzero"/></clipPath><clipPath id="f0e9e7eccf"><rect x="0" width="273" y="0" height="26"/></clipPath></defs><g clip-path="url(#aaa5f53138)"><path fill="#ffffff" d="M 325.609375 529.6875 C 325.691406 528.558594 325.441406 524.613281 324.859375 517.84375 C 323.792969 505.707031 327.78125 497.289062 336.828125 492.589844 C 344.871094 488.390625 353.390625 486.324219 363.417969 485.152344 C 364.253906 485.046875 364.839844 484.296875 364.734375 483.460938 C 363.960938 477.714844 363.480469 472.996094 363.292969 469.257812 C 363.042969 464.074219 364.191406 462.738281 367.765625 458.101562 C 369.121094 456.324219 369.6875 454.152344 369.476562 451.582031 C 369.433594 450.957031 368.871094 450.476562 368.246094 450.519531 C 343.449219 452.085938 319.71875 453.234375 297.097656 453.964844 C 286.503906 454.300781 276.457031 454.320312 266.953125 454.027344 C 265.28125 453.984375 264.195312 452.230469 264.90625 450.726562 C 265.363281 449.765625 266.390625 449.035156 267.957031 448.511719 C 270.710938 447.613281 274.765625 446.800781 280.113281 446.046875 C 305.996094 442.351562 332.878906 439.15625 360.765625 436.480469 C 366.007812 435.980469 372.253906 429.839844 378.105469 429.128906 C 387.734375 427.957031 395.714844 429.753906 402.0625 434.496094 C 402.984375 435.1875 404.070312 435.625 405.195312 435.792969 L 501.035156 449.078125 C 501.933594 449.179688 502.664062 449.828125 502.917969 450.707031 L 503.148438 451.542969 C 503.5 452.835938 502.539062 454.109375 501.203125 454.132812 C 481.296875 454.363281 469.117188 454.320312 464.710938 454.027344 C 446.703125 452.816406 429.324219 452.105469 412.570312 451.917969 C 411.839844 451.898438 411.109375 451.8125 410.398438 451.644531 L 400.328125 449.265625 C 399.410156 449.054688 398.554688 449.808594 398.660156 450.726562 L 399.390625 457.160156 C 399.433594 457.535156 399.597656 457.890625 399.851562 458.183594 C 403.210938 461.777344 404.988281 464.304688 405.21875 465.765625 C 406.011719 470.988281 406.285156 476.902344 406.054688 483.503906 C 406.011719 484.441406 406.765625 485.234375 407.703125 485.257812 C 420.027344 485.652344 434.859375 489.351562 442.671875 499.148438 C 449.191406 507.359375 445.03125 519.160156 446.828125 528.644531 C 446.976562 529.417969 447.8125 529.855469 448.542969 529.5625 L 525.183594 498.542969 C 526.3125 498.082031 527.066406 496.976562 527.042969 495.742188 C 527 490.25 527.148438 486.15625 527.460938 483.441406 C 528.277344 476.566406 534.167969 470.425781 539.472656 465.976562 C 540.664062 464.996094 541.269531 463.46875 541.101562 461.921875 L 540.226562 454.132812 C 540.015625 452.316406 540.601562 450.496094 541.792969 449.097656 C 546.785156 443.3125 553.84375 441.890625 563.015625 444.816406 C 564.582031 445.316406 566.292969 445.023438 567.609375 444.042969 C 576.53125 437.296875 586.367188 431.507812 597.085938 426.683594 C 621.628906 415.652344 639.867188 407.800781 651.816406 403.121094 C 655.386719 401.722656 658.832031 401.40625 662.195312 402.179688 C 663.785156 402.535156 664.621094 404.269531 663.910156 405.730469 C 662.761719 408.09375 661.046875 410.054688 658.75 411.621094 C 645.277344 420.835938 625.453125 434.957031 599.320312 454.007812 C 592.78125 458.769531 583.257812 459 576.90625 458.914062 C 571.976562 458.851562 569.574219 461.839844 568.175781 466.164062 C 567.945312 466.855469 568.238281 467.605469 568.863281 467.980469 C 570.472656 468.921875 571.746094 470.050781 572.644531 471.34375 C 573.1875 472.117188 573.5 473.035156 573.523438 473.996094 C 573.648438 479.660156 573.042969 482.289062 575.714844 487.847656 C 580.855469 498.585938 582.148438 509.675781 579.621094 521.144531 C 577.15625 532.300781 565.8125 534.972656 555.789062 533.84375 C 550.335938 533.21875 545.738281 530.605469 542 526.011719 C 541.519531 525.40625 540.683594 525.21875 539.972656 525.53125 L 462.328125 561.105469 C 461.679688 561.398438 461.304688 562.046875 461.347656 562.753906 C 461.765625 567.621094 464.0625 571.214844 468.242188 573.554688 C 481.714844 581.160156 509.183594 596.179688 550.648438 618.59375 C 554.992188 620.953125 558.0625 622.394531 559.839844 622.917969 C 560.527344 623.125 561.28125 622.980469 561.867188 622.519531 C 572.789062 613.851562 584.320312 613.265625 596.5 620.742188 C 597.734375 621.496094 599.152344 621.851562 600.59375 621.765625 C 609.242188 621.308594 617.429688 619.21875 627 617.820312 C 651 614.289062 670.78125 611.617188 686.34375 609.777344 C 688.765625 609.484375 690.941406 611.300781 691.042969 613.726562 C 691.148438 616.273438 689.917969 617.964844 687.390625 618.820312 C 682.898438 620.347656 668.402344 624.816406 643.855469 632.253906 C 632.03125 635.847656 616.304688 634.070312 605.941406 634.03125 C 605.191406 634.03125 604.605469 634.675781 604.6875 635.429688 C 605.105469 639.210938 604.667969 642.96875 603.394531 646.6875 C 603.121094 647.460938 603.226562 648.316406 603.644531 649.027344 C 606.945312 654.648438 607.757812 660.832031 606.109375 667.578125 C 604.0625 676.039062 595.851562 678.480469 589.792969 681.804688 C 588.332031 682.597656 587.265625 683.953125 586.828125 685.5625 C 581.710938 704.257812 577.175781 720.195312 573.230469 733.398438 C 570.828125 741.484375 561.886719 742.464844 556.183594 737.996094 C 555.597656 737.515625 555.222656 736.867188 555.097656 736.136719 C 553.511719 726.191406 556.496094 712.488281 558.734375 694.902344 C 559.128906 691.871094 558.398438 687.546875 556.558594 681.96875 C 554.429688 675.472656 555.054688 670.835938 556.769531 665.027344 C 557.125 663.796875 556.539062 662.5 555.371094 661.957031 L 460.699219 617.820312 C 458.339844 616.710938 455.5625 618.050781 454.914062 620.578125 C 452.84375 628.933594 451.675781 633.488281 451.425781 634.21875 C 448.585938 642.71875 436.863281 645.039062 427.589844 645.269531 C 426.585938 645.308594 425.792969 646.101562 425.773438 647.105469 L 425.625 656.066406 C 425.585938 658.261719 424.792969 660.371094 423.390625 662.042969 C 414.324219 672.820312 400.246094 674.011719 385.875 673.949219 C 371.542969 673.886719 359.074219 673.511719 349.214844 665.40625 C 344.492188 661.519531 345.933594 650.425781 345.871094 645.789062 C 345.851562 644.996094 345.183594 644.347656 344.390625 644.390625 C 339.3125 644.640625 329.683594 645.121094 325.234375 641.320312 C 318.964844 635.953125 319.28125 628.140625 318.027344 619.113281 C 317.816406 617.484375 316.085938 616.523438 314.578125 617.214844 L 212.976562 663.753906 C 212.160156 664.128906 211.722656 665.027344 211.972656 665.886719 C 212.851562 668.957031 213.332031 672.109375 213.414062 675.390625 C 213.558594 681.65625 209.464844 689.554688 210.40625 696.488281 C 212.453125 711.839844 213.957031 723.476562 214.9375 731.394531 C 215.542969 736.28125 211.828125 740.625 206.898438 740.773438 L 206.226562 740.792969 C 201.484375 741.003906 197.246094 737.910156 195.972656 733.359375 L 181.914062 682.867188 C 181.664062 681.992188 181.015625 681.28125 180.160156 680.96875 C 177.253906 679.902344 174.332031 678.605469 171.34375 677.0625 C 160.816406 671.609375 162.507812 660.015625 164.699219 650.074219 C 165.054688 648.464844 165.140625 646.8125 164.949219 645.207031 C 164.597656 642.007812 164.742188 638.730469 165.390625 635.324219 C 165.515625 634.65625 165.015625 634.03125 164.324219 634.03125 C 157.203125 634.050781 149.617188 634.238281 141.535156 634.636719 C 138.546875 634.78125 133.117188 633.820312 125.242188 631.710938 C 110.515625 627.785156 95.933594 624.003906 81.5 620.347656 C 78.929688 619.699219 77.027344 617.527344 76.734375 614.894531 L 76.695312 614.644531 C 76.382812 612.304688 78.367188 610.300781 80.703125 610.613281 L 168.3125 621.871094 C 170.839844 622.207031 173.410156 621.640625 175.5625 620.285156 C 182.625 615.835938 191.75 614.6875 202.96875 616.878906 C 206.625 617.589844 208.589844 619.636719 208.902344 623.042969 C 208.984375 623.855469 209.863281 624.335938 210.59375 623.960938 C 247.503906 605.078125 275.414062 590.539062 294.339844 580.367188 C 302.089844 576.1875 312.59375 570.402344 312.910156 565.410156 C 313.074219 563.007812 312.050781 561.292969 309.816406 560.226562 C 287.988281 549.886719 261.792969 538.398438 231.230469 525.804688 C 230.5 525.488281 229.644531 525.550781 228.933594 525.929688 C 226.03125 527.472656 222.9375 531.152344 220.265625 532.132812 C 209.382812 536.121094 198.769531 534.785156 193.421875 523.316406 C 187.46875 510.554688 187.742188 498.144531 194.257812 486.132812 C 194.65625 485.425781 194.78125 484.589844 194.613281 483.773438 C 193.253906 476.902344 195.050781 470.613281 200.042969 464.933594 C 200.816406 464.054688 200.816406 462.757812 200.023438 461.882812 C 196.453125 457.953125 187.511719 458.707031 181.183594 458.582031 C 178.363281 458.519531 175.625 457.578125 173.371094 455.867188 C 150.851562 438.839844 129.441406 423.238281 109.15625 409.03125 C 107.839844 408.113281 107.402344 407.027344 107.882812 405.792969 C 110.617188 398.628906 120.792969 402.828125 125.847656 405.0625 C 152.773438 416.90625 178.488281 429.167969 203.03125 441.808594 C 204.871094 442.746094 207.023438 442.789062 208.882812 441.953125 C 217.046875 438.214844 223.316406 438.421875 227.660156 442.621094 C 230.417969 445.296875 232.066406 447.34375 231.191406 451.394531 C 230.207031 456.054688 229.082031 460.417969 233.257812 464.722656 C 242.660156 474.414062 244.371094 482.101562 243.996094 495.179688 C 243.953125 496.933594 244.976562 498.523438 246.605469 499.167969 L 324.023438 530.671875 C 324.753906 530.960938 325.566406 530.460938 325.609375 529.6875 Z M 325.609375 529.6875 " fill-opacity="1" fill-rule="nonzero"/></g><g clip-path="url(#90a30a8661)"><g clip-path="url(#d8e58cc918)"><g transform="matrix(1, 0, 0, 1, 23, 213)"><g clip-path="url(#f61eb4e874)"><g clip-path="url(#4e999d216a)"><g clip-path="url(#ae0ae5af8c)"><path fill="#ffffff" d="M 0.882812 0.664062 L 38.449219 0.664062 L 38.449219 478.199219 L 0.882812 478.199219 Z M 0.882812 0.664062 " fill-opacity="1" fill-rule="nonzero"/></g></g></g></g></g></g><g clip-path="url(#6c1268ee7d)"><g clip-path="url(#f93d0f7a8f)"><g transform="matrix(1, 0, 0, 1, 706, 213)"><g clip-path="url(#44f41a24bd)"><g clip-path="url(#c8a048fbb7)"><g clip-path="url(#36fb1abcec)"><path fill="#ffffff" d="M 0.199219 0.664062 L 37.769531 0.664062 L 37.769531 478.199219 L 0.199219 478.199219 Z M 0.199219 0.664062 " fill-opacity="1" fill-rule="nonzero"/></g></g></g></g></g></g><g clip-path="url(#1802ce9db6)"><g clip-path="url(#b4a8392f96)"><g transform="matrix(1, 0, 0, 1, 245, 106)"><g clip-path="url(#acb3149b4b)"><g clip-path="url(#0d3aff5668)"><g clip-path="url(#c73a27173b)"><path fill="#ffffff" d="M 244.5625 214.433594 L 0.152344 214.433594 L 0.152344 0.886719 L 244.5625 0.886719 Z M 244.5625 214.433594 " fill-opacity="1" fill-rule="nonzero"/></g></g></g></g></g></g><g clip-path="url(#4ab25391ba)"><g clip-path="url(#2e658bff89)"><g transform="matrix(1, 0, 0, 1, 355, 9)"><g clip-path="url(#eb4319852c)"><g clip-path="url(#af53daef6b)"><g clip-path="url(#99590c0bcb)"><path fill="#ffffff" d="M 24.070312 272.574219 L 0.996094 272.574219 L 0.996094 0.554688 L 24.070312 0.554688 Z M 24.070312 272.574219 " fill-opacity="1" fill-rule="nonzero"/></g></g></g></g></g></g><g clip-path="url(#52d956a396)"><g clip-path="url(#ceca2bce65)"><g transform="matrix(1, 0, 0, 1, 356, 9)"><g clip-path="url(#f0e9e7eccf)"><g clip-path="url(#a1792c499f)"><g clip-path="url(#79eb50c9ac)"><path fill="#ffffff" d="M 0.0117188 25.730469 L 0.0117188 0.582031 L 272.027344 0.582031 L 272.027344 25.730469 Z M 0.0117188 25.730469 " fill-opacity="1" fill-rule="nonzero"/></g></g></g></g></g></g></svg>