<svg xmlns="http://www.w3.org/2000/svg" xmlns:xlink="http://www.w3.org/1999/xlink" width="2000" zoomAndPan="magnify" viewBox="0 0 1500 1499.999933" height="2000" preserveAspectRatio="xMidYMid meet" version="1.0"><path fill="#0097b2" d="M 886.625 852.851562 L 807.117188 692.929688 C 783.707031 713.867188 763.105469 750.605469 764.253906 780.707031 L 788.308594 828.148438 C 789.175781 829.851562 790.648438 831.164062 792.4375 831.832031 L 877.175781 863.355469 C 883.628906 865.753906 889.695312 859.015625 886.625 852.851562 Z M 743.941406 765.457031 C 743.738281 765.757812 743.546875 766.074219 743.378906 766.417969 L 713.195312 827.597656 C 712.335938 829.332031 710.847656 830.679688 709.03125 831.355469 L 622.730469 863.457031 C 616.3125 865.847656 610.261719 859.195312 613.242188 853.03125 L 741.34375 588.160156 C 744.09375 582.476562 752.175781 582.429688 754.988281 588.082031 L 804.398438 687.464844 C 777.304688 706.832031 756.089844 733.894531 743.941406 765.457031 " fill-opacity="1" fill-rule="nonzero"/></svg>